# xmcd CD database file
#
# Track frame offsets:
#	150
#	14415
#	32877
#	49017
#	74202
#	89435
#	107437
#	126942
#	142832
#	159195
#
# Disc length: 2453 seconds
#
# Revision: 0
# Processed by: cddbd v1.4PL0 Copyright (c) Steve Scherf et al.
# Submitted via: CdAid 2001.05.15.01
#
DISCID=8309930a
DTITLE=Bluesknacker - Lapidar
DYEAR=1900
DGENRE=
TTITLE0=Little Ann
TTITLE1=Somebody Said
TTITLE2=The Witch
TTITLE3=Everybody
TTITLE4=West Station Blues
TTITLE5=Knuckleduster
TTITLE6=Stars In Your Eyes
TTITLE7=Please Talk To Me, Baby
TTITLE8=Music Man
TTITLE9=You Love The Live
EXTD=
EXTT0=
EXTT1=
EXTT2=
EXTT3=
EXTT4=
EXTT5=
EXTT6=
EXTT7=
EXTT8=
EXTT9=
PLAYORDER=
